# MagicaVoxel @ Ephtracy

# material
mtllib body_king.mtl
usemtl palette

# normals
vn -1 0 0
vn 1 0 0
vn 0 0 1
vn 0 0 -1
vn 0 -1 0
vn 0 1 0

# texcoords
vt 0.845703 0.5
vt 0.849609 0.5
vt 0.853516 0.5
vt 0.943359 0.5
vt 0.974609 0.5
vt 0.978516 0.5

# verts
v -9 0 4.5
v -9 0 2.5
v -9 0 -2.5
v -9 0 -4.5
v -9 3 3.5
v -9 3 2.5
v -9 3 -2.5
v -9 3 -3.5
v -9 4 4.5
v -9 4 3.5
v -9 4 -3.5
v -9 4 -4.5
v -2 4 2.5
v -2 4 -2.5
v -2 6 2.5
v -2 6 -2.5
v 0 0 4.5
v 0 0 2.5
v 0 0 -2.5
v 0 0 -4.5
v 0 3 4.5
v 0 3 2.5
v 0 3 -2.5
v 0 3 -4.5
v 5 0 4.5
v 5 0 3.5
v 5 0 -3.5
v 5 0 -4.5
v 5 1 3.5
v 5 1 -3.5
v 5 2 4.5
v 5 2 3.5
v 5 2 -3.5
v 5 2 -4.5
v -7 0 4.5
v -7 0 2.5
v -7 0 -2.5
v -7 0 -4.5
v -7 3 4.5
v -7 3 2.5
v -7 3 -2.5
v -7 3 -4.5
v 2 0 4.5
v 2 0 2.5
v 2 0 -2.5
v 2 0 -4.5
v 2 3 3.5
v 2 3 2.5
v 2 3 -2.5
v 2 3 -3.5
v 2 4 4.5
v 2 4 3.5
v 2 4 2.5
v 2 4 1.5
v 2 4 -1.5
v 2 4 -2.5
v 2 4 -3.5
v 2 4 -4.5
v 2 5 1.5
v 2 5 0.5
v 2 5 -0.5
v 2 5 -1.5
v 2 6 2.5
v 2 6 0.5
v 2 6 -0.5
v 2 6 -2.5
v 9 0 4.5
v 9 0 3.5
v 9 0 -3.5
v 9 0 -4.5
v 9 1 3.5
v 9 1 -3.5
v 9 2 4.5
v 9 2 3.5
v 9 2 -3.5
v 9 2 -4.5
v -9 0 4.5
v -9 4 4.5
v -8 3 4.5
v -8 4 4.5
v -7 0 4.5
v -7 3 4.5
v 0 0 4.5
v 0 3 4.5
v 1 3 4.5
v 1 4 4.5
v 2 0 4.5
v 2 4 4.5
v 5 0 4.5
v 5 2 4.5
v 6 1 4.5
v 6 2 4.5
v 8 1 4.5
v 8 2 4.5
v 9 0 4.5
v 9 2 4.5
v -2 4 2.5
v -2 6 2.5
v -1 4 2.5
v -1 6 2.5
v 2 4 2.5
v 2 6 2.5
v -9 0 -2.5
v -9 3 -2.5
v -7 0 -2.5
v -7 3 -2.5
v 0 0 -2.5
v 0 3 -2.5
v 2 0 -2.5
v 2 3 -2.5
v 5 0 -3.5
v 5 1 -3.5
v 9 0 -3.5
v 9 1 -3.5
v 5 0 3.5
v 5 1 3.5
v 9 0 3.5
v 9 1 3.5
v -9 0 2.5
v -9 3 2.5
v -7 0 2.5
v -7 3 2.5
v 0 0 2.5
v 0 3 2.5
v 2 0 2.5
v 2 3 2.5
v -2 4 -2.5
v -2 6 -2.5
v -1 4 -2.5
v -1 6 -2.5
v 2 4 -2.5
v 2 6 -2.5
v -9 0 -4.5
v -9 4 -4.5
v -8 3 -4.5
v -8 4 -4.5
v -7 0 -4.5
v -7 3 -4.5
v 0 0 -4.5
v 0 3 -4.5
v 1 3 -4.5
v 1 4 -4.5
v 2 0 -4.5
v 2 4 -4.5
v 5 0 -4.5
v 5 2 -4.5
v 6 1 -4.5
v 6 2 -4.5
v 8 1 -4.5
v 8 2 -4.5
v 9 0 -4.5
v 9 2 -4.5
v -9 0 4.5
v -7 0 4.5
v 0 0 4.5
v 2 0 4.5
v 5 0 4.5
v 9 0 4.5
v 5 0 3.5
v 9 0 3.5
v -9 0 2.5
v -7 0 2.5
v 0 0 2.5
v 2 0 2.5
v -9 0 -2.5
v -7 0 -2.5
v 0 0 -2.5
v 2 0 -2.5
v 5 0 -3.5
v 9 0 -3.5
v -9 0 -4.5
v -7 0 -4.5
v 0 0 -4.5
v 2 0 -4.5
v 5 0 -4.5
v 9 0 -4.5
v 5 1 3.5
v 9 1 3.5
v 5 1 -3.5
v 9 1 -3.5
v -7 3 4.5
v 0 3 4.5
v -9 3 2.5
v -7 3 2.5
v 0 3 2.5
v 2 3 2.5
v -9 3 -2.5
v -7 3 -2.5
v 0 3 -2.5
v 2 3 -2.5
v -7 3 -4.5
v 0 3 -4.5
v 5 2 4.5
v 6 2 4.5
v 8 2 4.5
v 9 2 4.5
v 5 2 3.5
v 6 2 3.5
v 8 2 3.5
v 9 2 3.5
v 5 2 -3.5
v 6 2 -3.5
v 8 2 -3.5
v 9 2 -3.5
v 5 2 -4.5
v 6 2 -4.5
v 8 2 -4.5
v 9 2 -4.5
v -9 4 4.5
v -8 4 4.5
v 1 4 4.5
v 2 4 4.5
v -9 4 3.5
v -8 4 3.5
v 1 4 3.5
v 2 4 3.5
v -2 4 2.5
v -1 4 2.5
v 2 4 2.5
v -2 4 -2.5
v -1 4 -2.5
v 2 4 -2.5
v -9 4 -3.5
v -8 4 -3.5
v 1 4 -3.5
v 2 4 -3.5
v -9 4 -4.5
v -8 4 -4.5
v 1 4 -4.5
v 2 4 -4.5
v -2 6 2.5
v -1 6 2.5
v 2 6 2.5
v -1 6 0.5
v 0 6 0.5
v 2 6 0.5
v -1 6 -0.5
v 0 6 -0.5
v 2 6 -0.5
v -2 6 -2.5
v -1 6 -2.5
v 2 6 -2.5

# faces
f 5/5/1 2/5/1 1/5/1
f 6/5/1 2/5/1 5/5/1
f 7/5/1 4/5/1 3/5/1
f 8/5/1 4/5/1 7/5/1
f 9/5/1 5/5/1 1/5/1
f 10/6/1 6/6/1 5/6/1
f 10/5/1 5/5/1 9/5/1
f 10/6/1 7/6/1 6/6/1
f 10/6/1 8/6/1 7/6/1
f 11/5/1 4/5/1 8/5/1
f 11/6/1 8/6/1 10/6/1
f 12/5/1 4/5/1 11/5/1
f 15/1/1 14/1/1 13/1/1
f 16/1/1 14/1/1 15/1/1
f 21/5/1 18/5/1 17/5/1
f 22/5/1 18/5/1 21/5/1
f 23/5/1 20/5/1 19/5/1
f 24/5/1 20/5/1 23/5/1
f 29/5/1 26/5/1 25/5/1
f 30/5/1 28/5/1 27/5/1
f 31/5/1 29/5/1 25/5/1
f 32/6/1 30/6/1 29/6/1
f 32/5/1 29/5/1 31/5/1
f 33/5/1 28/5/1 30/5/1
f 33/6/1 30/6/1 32/6/1
f 34/5/1 28/5/1 33/5/1
f 35/5/2 36/5/2 39/5/2
f 39/5/2 36/5/2 40/5/2
f 37/5/2 38/5/2 41/5/2
f 41/5/2 38/5/2 42/5/2
f 43/5/2 44/5/2 47/5/2
f 47/5/2 44/5/2 48/5/2
f 45/5/2 46/5/2 49/5/2
f 49/5/2 46/5/2 50/5/2
f 43/5/2 47/5/2 51/5/2
f 47/6/2 48/6/2 52/6/2
f 51/5/2 47/5/2 52/5/2
f 48/6/2 49/6/2 52/6/2
f 49/6/2 50/6/2 52/6/2
f 52/6/2 50/6/2 53/6/2
f 53/6/2 50/6/2 54/6/2
f 54/6/2 50/6/2 55/6/2
f 55/6/2 50/6/2 56/6/2
f 50/5/2 46/5/2 57/5/2
f 56/6/2 50/6/2 57/6/2
f 57/5/2 46/5/2 58/5/2
f 54/1/2 55/1/2 59/1/2
f 53/2/2 54/2/2 59/2/2
f 59/1/2 55/1/2 60/1/2
f 60/1/2 55/1/2 61/1/2
f 55/2/2 56/2/2 62/2/2
f 61/1/2 55/1/2 62/1/2
f 53/2/2 59/2/2 63/2/2
f 59/2/2 60/2/2 63/2/2
f 60/1/2 61/1/2 64/1/2
f 63/2/2 60/2/2 64/2/2
f 61/2/2 62/2/2 65/2/2
f 64/1/2 61/1/2 65/1/2
f 62/2/2 56/2/2 66/2/2
f 65/2/2 62/2/2 66/2/2
f 67/5/2 68/5/2 71/5/2
f 69/5/2 70/5/2 72/5/2
f 67/5/2 71/5/2 73/5/2
f 71/6/2 72/6/2 74/6/2
f 73/5/2 71/5/2 74/5/2
f 72/5/2 70/5/2 75/5/2
f 74/6/2 72/6/2 75/6/2
f 75/5/2 70/5/2 76/5/2
f 79/5/3 78/5/3 77/5/3
f 80/5/3 78/5/3 79/5/3
f 81/5/3 79/5/3 77/5/3
f 82/6/3 80/6/3 79/6/3
f 82/5/3 79/5/3 81/5/3
f 84/6/3 80/6/3 82/6/3
f 85/6/3 80/6/3 84/6/3
f 85/5/3 84/5/3 83/5/3
f 86/6/3 80/6/3 85/6/3
f 87/5/3 85/5/3 83/5/3
f 87/5/3 86/5/3 85/5/3
f 88/5/3 86/5/3 87/5/3
f 91/5/3 90/5/3 89/5/3
f 92/5/3 90/5/3 91/5/3
f 93/5/3 91/5/3 89/5/3
f 93/6/3 92/6/3 91/6/3
f 94/6/3 92/6/3 93/6/3
f 95/5/3 93/5/3 89/5/3
f 95/5/3 94/5/3 93/5/3
f 96/5/3 94/5/3 95/5/3
f 99/1/3 98/1/3 97/1/3
f 100/1/3 98/1/3 99/1/3
f 101/2/3 100/2/3 99/2/3
f 102/2/3 100/2/3 101/2/3
f 105/5/3 104/5/3 103/5/3
f 106/5/3 104/5/3 105/5/3
f 109/5/3 108/5/3 107/5/3
f 110/5/3 108/5/3 109/5/3
f 113/5/3 112/5/3 111/5/3
f 114/5/3 112/5/3 113/5/3
f 115/5/4 116/5/4 117/5/4
f 117/5/4 116/5/4 118/5/4
f 119/5/4 120/5/4 121/5/4
f 121/5/4 120/5/4 122/5/4
f 123/5/4 124/5/4 125/5/4
f 125/5/4 124/5/4 126/5/4
f 127/1/4 128/1/4 129/1/4
f 129/1/4 128/1/4 130/1/4
f 129/2/4 130/2/4 131/2/4
f 131/2/4 130/2/4 132/2/4
f 133/5/4 134/5/4 135/5/4
f 135/5/4 134/5/4 136/5/4
f 133/5/4 135/5/4 137/5/4
f 135/6/4 136/6/4 138/6/4
f 137/5/4 135/5/4 138/5/4
f 138/6/4 136/6/4 140/6/4
f 140/6/4 136/6/4 141/6/4
f 139/5/4 140/5/4 141/5/4
f 141/6/4 136/6/4 142/6/4
f 139/5/4 141/5/4 143/5/4
f 141/5/4 142/5/4 143/5/4
f 143/5/4 142/5/4 144/5/4
f 145/5/4 146/5/4 147/5/4
f 147/5/4 146/5/4 148/5/4
f 145/5/4 147/5/4 149/5/4
f 147/6/4 148/6/4 149/6/4
f 149/6/4 148/6/4 150/6/4
f 145/5/4 149/5/4 151/5/4
f 149/5/4 150/5/4 151/5/4
f 151/5/4 150/5/4 152/5/4
f 159/5/5 158/5/5 157/5/5
f 160/5/5 158/5/5 159/5/5
f 161/5/5 154/5/5 153/5/5
f 162/5/5 154/5/5 161/5/5
f 163/5/5 156/5/5 155/5/5
f 164/5/5 156/5/5 163/5/5
f 171/5/5 166/5/5 165/5/5
f 172/5/5 166/5/5 171/5/5
f 173/5/5 168/5/5 167/5/5
f 174/5/5 168/5/5 173/5/5
f 175/5/5 170/5/5 169/5/5
f 176/5/5 170/5/5 175/5/5
f 179/6/5 178/6/5 177/6/5
f 180/6/5 178/6/5 179/6/5
f 184/6/5 182/6/5 181/6/5
f 185/6/5 182/6/5 184/6/5
f 187/6/5 184/6/5 183/6/5
f 187/6/5 186/6/5 185/6/5
f 187/6/5 185/6/5 184/6/5
f 188/6/5 186/6/5 187/6/5
f 189/6/5 186/6/5 188/6/5
f 190/6/5 186/6/5 189/6/5
f 191/6/5 189/6/5 188/6/5
f 192/6/5 189/6/5 191/6/5
f 193/5/6 194/5/6 197/5/6
f 194/6/6 195/6/6 198/6/6
f 197/5/6 194/5/6 198/5/6
f 195/5/6 196/5/6 199/5/6
f 198/6/6 195/6/6 199/6/6
f 199/5/6 196/5/6 200/5/6
f 197/6/6 198/6/6 201/6/6
f 198/6/6 199/6/6 201/6/6
f 199/6/6 200/6/6 201/6/6
f 201/6/6 200/6/6 202/6/6
f 202/6/6 200/6/6 203/6/6
f 203/6/6 200/6/6 204/6/6
f 201/5/6 202/5/6 205/5/6
f 202/6/6 203/6/6 206/6/6
f 205/5/6 202/5/6 206/5/6
f 203/5/6 204/5/6 207/5/6
f 206/6/6 203/6/6 207/6/6
f 207/5/6 204/5/6 208/5/6
f 209/5/6 210/5/6 213/5/6
f 210/6/6 211/6/6 214/6/6
f 213/5/6 210/5/6 214/5/6
f 211/5/6 212/5/6 215/5/6
f 214/6/6 211/6/6 215/6/6
f 215/5/6 212/5/6 216/5/6
f 213/6/6 214/6/6 217/6/6
f 214/6/6 215/6/6 217/6/6
f 215/6/6 216/6/6 217/6/6
f 217/6/6 216/6/6 218/6/6
f 218/6/6 216/6/6 219/6/6
f 213/6/6 217/6/6 220/6/6
f 213/6/6 220/6/6 223/6/6
f 221/6/6 222/6/6 223/6/6
f 220/6/6 221/6/6 223/6/6
f 223/6/6 222/6/6 224/6/6
f 224/6/6 222/6/6 225/6/6
f 225/6/6 222/6/6 226/6/6
f 223/5/6 224/5/6 227/5/6
f 224/6/6 225/6/6 228/6/6
f 227/5/6 224/5/6 228/5/6
f 225/5/6 226/5/6 229/5/6
f 228/6/6 225/6/6 229/6/6
f 229/5/6 226/5/6 230/5/6
f 231/1/6 232/1/6 234/1/6
f 232/2/6 233/2/6 234/2/6
f 234/2/6 233/2/6 235/2/6
f 235/2/6 233/2/6 236/2/6
f 231/1/6 234/1/6 237/1/6
f 234/3/6 235/3/6 237/3/6
f 235/1/6 236/1/6 238/1/6
f 237/3/6 235/3/6 238/3/6
f 238/1/6 236/1/6 239/1/6
f 231/1/6 237/1/6 240/1/6
f 237/2/6 238/2/6 241/2/6
f 240/1/6 237/1/6 241/1/6
f 238/2/6 239/2/6 241/2/6
f 241/2/6 239/2/6 242/2/6
