# MagicaVoxel @ Ephtracy

# material
mtllib body_pnj1.mtl
usemtl palette

# normals
vn -1 0 0
vn 1 0 0
vn 0 0 1
vn 0 0 -1
vn 0 -1 0
vn 0 1 0

# texcoords
vt 0.845703 0.5
vt 0.908203 0.5
vt 0.974609 0.5

# verts
v -1 0 2.5
v -1 0 -2.5
v -1 1 2.5
v -1 1 -2.5
v -1 4 2.5
v -1 4 -2.5
v 1 0 2.5
v 1 0 -2.5
v 1 1 2.5
v 1 1 -2.5
v 1 3 0.5
v 1 3 -0.5
v 1 4 2.5
v 1 4 0.5
v 1 4 -0.5
v 1 4 -2.5
v -1 0 2.5
v -1 1 2.5
v -1 4 2.5
v 1 0 2.5
v 1 1 2.5
v 1 4 2.5
v -1 0 -2.5
v -1 1 -2.5
v -1 4 -2.5
v 1 0 -2.5
v 1 1 -2.5
v 1 4 -2.5
v -1 0 2.5
v 1 0 2.5
v -1 0 -2.5
v 1 0 -2.5
v -1 4 2.5
v 1 4 2.5
v 0 4 0.5
v 1 4 0.5
v 0 4 -0.5
v 1 4 -0.5
v -1 4 -2.5
v 1 4 -2.5

# faces
f 3/2/1 2/2/1 1/2/1
f 4/2/1 2/2/1 3/2/1
f 5/3/1 4/3/1 3/3/1
f 6/3/1 4/3/1 5/3/1
f 7/2/2 8/2/2 9/2/2
f 9/2/2 8/2/2 10/2/2
f 9/3/2 10/3/2 11/3/2
f 11/3/2 10/3/2 12/3/2
f 9/3/2 11/3/2 13/3/2
f 11/1/2 12/1/2 14/1/2
f 13/3/2 11/3/2 14/3/2
f 12/3/2 10/3/2 15/3/2
f 14/1/2 12/1/2 15/1/2
f 15/3/2 10/3/2 16/3/2
f 20/2/3 18/2/3 17/2/3
f 21/3/3 19/3/3 18/3/3
f 21/2/3 18/2/3 20/2/3
f 22/3/3 19/3/3 21/3/3
f 23/2/4 24/2/4 26/2/4
f 24/3/4 25/3/4 27/3/4
f 26/2/4 24/2/4 27/2/4
f 27/3/4 25/3/4 28/3/4
f 31/2/5 30/2/5 29/2/5
f 32/2/5 30/2/5 31/2/5
f 33/3/6 34/3/6 35/3/6
f 35/3/6 34/3/6 36/3/6
f 33/3/6 35/3/6 37/3/6
f 35/1/6 36/1/6 37/1/6
f 37/1/6 36/1/6 38/1/6
f 33/3/6 37/3/6 39/3/6
f 37/3/6 38/3/6 39/3/6
f 39/3/6 38/3/6 40/3/6
