# MagicaVoxel @ Ephtracy

# material
mtllib body_pnj3.mtl
usemtl palette

# normals
vn -1 0 0
vn 1 0 0
vn 0 0 1
vn 0 0 -1
vn 0 -1 0
vn 0 1 0

# texcoords
vt 0.908203 0.5
vt 0.912109 0.5
vt 0.951172 0.5

# verts
v -1 0 2.5
v -1 0 -2.5
v -1 1 2.5
v -1 1 -2.5
v -1 4 2.5
v -1 4 -2.5
v 1 0 2.5
v 1 0 -2.5
v 1 1 2.5
v 1 1 0.5
v 1 1 -0.5
v 1 1 -2.5
v 1 3 1.5
v 1 3 0.5
v 1 3 -0.5
v 1 3 -1.5
v 1 4 2.5
v 1 4 1.5
v 1 4 -1.5
v 1 4 -2.5
v -1 0 2.5
v -1 1 2.5
v -1 4 2.5
v 1 0 2.5
v 1 1 2.5
v 1 4 2.5
v -1 0 -2.5
v -1 1 -2.5
v -1 4 -2.5
v 1 0 -2.5
v 1 1 -2.5
v 1 4 -2.5
v -1 0 2.5
v 1 0 2.5
v -1 0 -2.5
v 1 0 -2.5
v -1 4 2.5
v 1 4 2.5
v 0 4 1.5
v 1 4 1.5
v 0 4 -1.5
v 1 4 -1.5
v -1 4 -2.5
v 1 4 -2.5

# faces
f 3/1/1 2/1/1 1/1/1
f 4/1/1 2/1/1 3/1/1
f 5/2/1 4/2/1 3/2/1
f 6/2/1 4/2/1 5/2/1
f 7/1/2 8/1/2 9/1/2
f 9/1/2 8/1/2 10/1/2
f 10/1/2 8/1/2 11/1/2
f 11/1/2 8/1/2 12/1/2
f 9/2/2 10/2/2 13/2/2
f 10/3/2 11/3/2 14/3/2
f 13/2/2 10/2/2 14/2/2
f 11/2/2 12/2/2 15/2/2
f 14/3/2 11/3/2 15/3/2
f 15/2/2 12/2/2 16/2/2
f 9/2/2 13/2/2 17/2/2
f 13/3/2 14/3/2 18/3/2
f 17/2/2 13/2/2 18/2/2
f 14/3/2 15/3/2 18/3/2
f 15/3/2 16/3/2 18/3/2
f 16/2/2 12/2/2 19/2/2
f 18/3/2 16/3/2 19/3/2
f 19/2/2 12/2/2 20/2/2
f 24/1/3 22/1/3 21/1/3
f 25/2/3 23/2/3 22/2/3
f 25/1/3 22/1/3 24/1/3
f 26/2/3 23/2/3 25/2/3
f 27/1/4 28/1/4 30/1/4
f 28/2/4 29/2/4 31/2/4
f 30/1/4 28/1/4 31/1/4
f 31/2/4 29/2/4 32/2/4
f 35/1/5 34/1/5 33/1/5
f 36/1/5 34/1/5 35/1/5
f 37/2/6 38/2/6 39/2/6
f 39/2/6 38/2/6 40/2/6
f 37/2/6 39/2/6 41/2/6
f 39/3/6 40/3/6 41/3/6
f 41/3/6 40/3/6 42/3/6
f 37/2/6 41/2/6 43/2/6
f 41/2/6 42/2/6 43/2/6
f 43/2/6 42/2/6 44/2/6
