# MagicaVoxel @ Ephtracy

# material
mtllib head_pnj2.mtl
usemtl palette

# normals
vn -1 0 0
vn 1 0 0
vn 0 0 1
vn 0 0 -1
vn 0 -1 0
vn 0 1 0

# texcoords
vt 0.888672 0.5
vt 0.943359 0.5
vt 0.970703 0.5
vt 0.978516 0.5
vt 0.982422 0.5

# verts
v -3 0 2.5
v -3 0 0.5
v -3 1 0.5
v -3 1 -0.5
v -3 3 -0.5
v -3 3 -1.5
v -3 4 -1.5
v -3 4 -2.5
v -3 9 2.5
v -3 9 -2.5
v -2 3 3.5
v -2 3 2.5
v -2 5 -2.5
v -2 5 -3.5
v -2 9 3.5
v -2 9 2.5
v -2 9 -2.5
v -2 9 -3.5
v -2 10 2.5
v -2 10 -2.5
v -2 0 2.5
v -2 0 0.5
v -2 1 0.5
v -2 1 -0.5
v -2 3 2.5
v -2 3 -0.5
v -2 3 -1.5
v -2 4 2.5
v -2 4 -1.5
v -1 3 3.5
v -1 3 2.5
v -1 4 3.5
v -1 4 2.5
v 0 4 3.5
v 0 4 2.5
v 0 5 3.5
v 0 5 2.5
v 0 5 -2.5
v 0 5 -3.5
v 0 6 -2.5
v 0 6 -3.5
v 1 5 3.5
v 1 5 2.5
v 1 6 3.5
v 1 6 2.5
v 1 6 -2.5
v 1 6 -3.5
v 1 7 -2.5
v 1 7 -3.5
v 2 4 2.5
v 2 4 -2.5
v 2 5 1.5
v 2 5 0.5
v 2 5 -0.5
v 2 5 -1.5
v 2 6 3.5
v 2 6 2.5
v 2 6 1.5
v 2 6 0.5
v 2 6 -0.5
v 2 6 -1.5
v 2 7 0.5
v 2 7 -2.5
v 2 7 -3.5
v 2 9 3.5
v 2 9 2.5
v 2 9 -2.5
v 2 9 -3.5
v 2 10 2.5
v 2 10 -2.5
v 3 6 2.5
v 3 6 0.5
v 3 7 0.5
v 3 7 -2.5
v 3 9 2.5
v 3 9 -2.5
v -2 3 3.5
v -2 9 3.5
v -1 3 3.5
v -1 4 3.5
v 0 4 3.5
v 0 5 3.5
v 1 5 3.5
v 1 6 3.5
v 2 6 3.5
v 2 9 3.5
v -3 0 2.5
v -3 9 2.5
v -2 0 2.5
v -2 3 2.5
v -2 9 2.5
v -2 10 2.5
v 0 4 2.5
v 0 5 2.5
v 1 5 2.5
v 1 6 2.5
v 2 4 2.5
v 2 6 2.5
v 2 9 2.5
v 2 10 2.5
v 3 6 2.5
v 3 9 2.5
v -2 3 2.5
v -2 4 2.5
v -1 3 2.5
v -1 4 2.5
v -3 0 0.5
v -3 1 0.5
v -2 0 0.5
v -2 1 0.5
v 2 6 0.5
v 2 7 0.5
v 3 6 0.5
v 3 7 0.5
v -3 1 -0.5
v -3 3 -0.5
v -2 1 -0.5
v -2 3 -0.5
v -3 3 -1.5
v -3 4 -1.5
v -2 3 -1.5
v -2 4 -1.5
v -3 4 -2.5
v -3 9 -2.5
v -2 4 -2.5
v -2 5 -2.5
v -2 9 -2.5
v -2 10 -2.5
v 0 5 -2.5
v 0 6 -2.5
v 1 6 -2.5
v 1 7 -2.5
v 2 4 -2.5
v 2 7 -2.5
v 2 9 -2.5
v 2 10 -2.5
v 3 7 -2.5
v 3 9 -2.5
v -2 5 -3.5
v -2 9 -3.5
v 0 5 -3.5
v 0 6 -3.5
v 1 6 -3.5
v 1 7 -3.5
v 2 7 -3.5
v 2 9 -3.5
v -3 0 2.5
v -2 0 2.5
v -3 0 0.5
v -2 0 0.5
v -3 1 0.5
v -2 1 0.5
v -3 1 -0.5
v -2 1 -0.5
v -2 3 3.5
v -1 3 3.5
v -2 3 2.5
v -1 3 2.5
v -3 3 -0.5
v -2 3 -0.5
v -3 3 -1.5
v -2 3 -1.5
v -1 4 3.5
v 0 4 3.5
v -2 4 2.5
v -1 4 2.5
v 0 4 2.5
v 2 4 2.5
v -1 4 1.5
v 0 4 1.5
v 0 4 0.5
v 1 4 0.5
v -1 4 -0.5
v 0 4 -0.5
v 1 4 -0.5
v -3 4 -1.5
v -2 4 -1.5
v -3 4 -2.5
v -2 4 -2.5
v 2 4 -2.5
v 0 5 3.5
v 1 5 3.5
v 0 5 2.5
v 1 5 2.5
v -2 5 -2.5
v 0 5 -2.5
v -2 5 -3.5
v 0 5 -3.5
v 1 6 3.5
v 2 6 3.5
v 1 6 2.5
v 2 6 2.5
v 3 6 2.5
v 2 6 1.5
v 2 6 0.5
v 3 6 0.5
v 0 6 -2.5
v 1 6 -2.5
v 0 6 -3.5
v 1 6 -3.5
v 2 7 0.5
v 3 7 0.5
v 1 7 -2.5
v 2 7 -2.5
v 3 7 -2.5
v 1 7 -3.5
v 2 7 -3.5
v -2 9 3.5
v 2 9 3.5
v -3 9 2.5
v -2 9 2.5
v 2 9 2.5
v 3 9 2.5
v -3 9 -2.5
v -2 9 -2.5
v 2 9 -2.5
v 3 9 -2.5
v -2 9 -3.5
v 2 9 -3.5
v -2 10 2.5
v 2 10 2.5
v -2 10 -2.5
v 2 10 -2.5

# faces
f 3/3/1 2/3/1 1/3/1
f 5/3/1 4/3/1 3/3/1
f 7/3/1 6/3/1 5/3/1
f 9/3/1 3/3/1 1/3/1
f 9/3/1 8/3/1 7/3/1
f 9/3/1 7/3/1 5/3/1
f 9/3/1 5/3/1 3/3/1
f 10/3/1 8/3/1 9/3/1
f 15/3/1 12/3/1 11/3/1
f 16/3/1 12/3/1 15/3/1
f 17/3/1 14/3/1 13/3/1
f 18/3/1 14/3/1 17/3/1
f 19/3/1 17/3/1 16/3/1
f 20/3/1 17/3/1 19/3/1
f 21/3/2 22/3/2 23/3/2
f 21/3/2 23/3/2 25/3/2
f 23/3/2 24/3/2 25/3/2
f 25/3/2 24/3/2 26/3/2
f 25/3/2 26/3/2 28/3/2
f 26/3/2 27/3/2 28/3/2
f 28/3/2 27/3/2 29/3/2
f 30/3/2 31/3/2 32/3/2
f 32/3/2 31/3/2 33/3/2
f 34/3/2 35/3/2 36/3/2
f 36/3/2 35/3/2 37/3/2
f 38/3/2 39/3/2 40/3/2
f 40/3/2 39/3/2 41/3/2
f 42/3/2 43/3/2 44/3/2
f 44/3/2 43/3/2 45/3/2
f 46/3/2 47/3/2 48/3/2
f 48/3/2 47/3/2 49/3/2
f 50/5/2 51/5/2 52/5/2
f 52/5/2 51/5/2 53/5/2
f 53/5/2 51/5/2 54/5/2
f 54/5/2 51/5/2 55/5/2
f 50/5/2 52/5/2 57/5/2
f 52/1/2 53/1/2 58/1/2
f 57/5/2 52/5/2 58/5/2
f 53/5/2 54/5/2 59/5/2
f 58/1/2 53/1/2 59/1/2
f 54/1/2 55/1/2 60/1/2
f 59/5/2 54/5/2 60/5/2
f 55/5/2 51/5/2 61/5/2
f 60/1/2 55/1/2 61/1/2
f 59/5/2 60/5/2 62/5/2
f 60/5/2 61/5/2 62/5/2
f 61/5/2 51/5/2 63/5/2
f 62/5/2 61/5/2 63/5/2
f 56/3/2 57/3/2 65/3/2
f 65/3/2 57/3/2 66/3/2
f 63/3/2 64/3/2 67/3/2
f 67/3/2 64/3/2 68/3/2
f 66/3/2 67/3/2 69/3/2
f 69/3/2 67/3/2 70/3/2
f 71/3/2 72/3/2 73/3/2
f 71/3/2 73/3/2 75/3/2
f 73/3/2 74/3/2 75/3/2
f 75/3/2 74/3/2 76/3/2
f 79/3/3 78/3/3 77/3/3
f 80/3/3 78/3/3 79/3/3
f 81/3/3 78/3/3 80/3/3
f 82/3/3 78/3/3 81/3/3
f 83/3/3 78/3/3 82/3/3
f 84/3/3 78/3/3 83/3/3
f 85/3/3 78/3/3 84/3/3
f 86/3/3 78/3/3 85/3/3
f 89/3/3 88/3/3 87/3/3
f 90/3/3 88/3/3 89/3/3
f 91/3/3 88/3/3 90/3/3
f 95/5/3 94/5/3 93/5/3
f 97/5/3 95/5/3 93/5/3
f 97/5/3 96/5/3 95/5/3
f 98/5/3 96/5/3 97/5/3
f 99/3/3 92/3/3 91/3/3
f 100/3/3 92/3/3 99/3/3
f 101/3/3 99/3/3 98/3/3
f 102/3/3 99/3/3 101/3/3
f 103/3/4 104/3/4 105/3/4
f 105/3/4 104/3/4 106/3/4
f 107/3/4 108/3/4 109/3/4
f 109/3/4 108/3/4 110/3/4
f 111/3/4 112/3/4 113/3/4
f 113/3/4 112/3/4 114/3/4
f 115/3/4 116/3/4 117/3/4
f 117/3/4 116/3/4 118/3/4
f 119/3/4 120/3/4 121/3/4
f 121/3/4 120/3/4 122/3/4
f 123/3/4 124/3/4 125/3/4
f 125/3/4 124/3/4 126/3/4
f 126/3/4 124/3/4 127/3/4
f 125/5/4 126/5/4 129/5/4
f 129/5/4 130/5/4 131/5/4
f 125/5/4 129/5/4 133/5/4
f 131/5/4 132/5/4 133/5/4
f 129/5/4 131/5/4 133/5/4
f 133/5/4 132/5/4 134/5/4
f 127/3/4 128/3/4 135/3/4
f 135/3/4 128/3/4 136/3/4
f 134/3/4 135/3/4 137/3/4
f 137/3/4 135/3/4 138/3/4
f 139/3/4 140/3/4 141/3/4
f 141/3/4 140/3/4 142/3/4
f 142/3/4 140/3/4 143/3/4
f 143/3/4 140/3/4 144/3/4
f 144/3/4 140/3/4 145/3/4
f 145/3/4 140/3/4 146/3/4
f 149/3/5 148/3/5 147/3/5
f 150/3/5 148/3/5 149/3/5
f 153/3/5 152/3/5 151/3/5
f 154/3/5 152/3/5 153/3/5
f 157/3/5 156/3/5 155/3/5
f 158/3/5 156/3/5 157/3/5
f 161/3/5 160/3/5 159/3/5
f 162/3/5 160/3/5 161/3/5
f 166/3/5 164/3/5 163/3/5
f 167/3/5 164/3/5 166/3/5
f 169/5/5 166/5/5 165/5/5
f 169/5/5 168/5/5 167/5/5
f 169/5/5 167/5/5 166/5/5
f 170/5/5 168/5/5 169/5/5
f 171/2/5 170/2/5 169/2/5
f 171/5/5 168/5/5 170/5/5
f 172/5/5 168/5/5 171/5/5
f 173/5/5 169/5/5 165/5/5
f 173/2/5 171/2/5 169/2/5
f 174/4/5 172/4/5 171/4/5
f 174/2/5 171/2/5 173/2/5
f 175/5/5 168/5/5 172/5/5
f 175/4/5 172/4/5 174/4/5
f 177/5/5 174/5/5 173/5/5
f 177/5/5 173/5/5 165/5/5
f 177/5/5 175/5/5 174/5/5
f 178/3/5 177/3/5 176/3/5
f 179/5/5 175/5/5 177/5/5
f 179/3/5 177/3/5 178/3/5
f 180/5/5 168/5/5 175/5/5
f 180/5/5 175/5/5 179/5/5
f 183/3/5 182/3/5 181/3/5
f 184/3/5 182/3/5 183/3/5
f 187/3/5 186/3/5 185/3/5
f 188/3/5 186/3/5 187/3/5
f 191/3/5 190/3/5 189/3/5
f 192/3/5 190/3/5 191/3/5
f 194/3/5 193/3/5 192/3/5
f 195/3/5 193/3/5 194/3/5
f 196/3/5 193/3/5 195/3/5
f 199/3/5 198/3/5 197/3/5
f 200/3/5 198/3/5 199/3/5
f 204/3/5 202/3/5 201/3/5
f 205/3/5 202/3/5 204/3/5
f 206/3/5 204/3/5 203/3/5
f 207/3/5 204/3/5 206/3/5
f 208/3/6 209/3/6 211/3/6
f 211/3/6 209/3/6 212/3/6
f 210/3/6 211/3/6 214/3/6
f 214/3/6 211/3/6 215/3/6
f 212/3/6 213/3/6 216/3/6
f 216/3/6 213/3/6 217/3/6
f 215/3/6 216/3/6 218/3/6
f 218/3/6 216/3/6 219/3/6
f 220/3/6 221/3/6 222/3/6
f 222/3/6 221/3/6 223/3/6
