# MagicaVoxel @ Ephtracy

# material
mtllib head_guard.mtl
usemtl palette

# normals
vn -1 0 0
vn 1 0 0
vn 0 0 1
vn 0 0 -1
vn 0 -1 0
vn 0 1 0

# texcoords
vt 0.853516 0.5
vt 0.912109 0.5
vt 0.939453 0.5
vt 0.943359 0.5
vt 0.947266 0.5
vt 0.978516 0.5
vt 0.982422 0.5

# verts
v -3 1 3.5
v -3 1 2.5
v -3 1 0.5
v -3 1 -0.5
v -3 1 -2.5
v -3 1 -3.5
v -3 3 2.5
v -3 3 0.5
v -3 3 -0.5
v -3 3 -2.5
v -3 5 1.5
v -3 5 -1.5
v -3 6 3.5
v -3 6 1.5
v -3 6 -1.5
v -3 6 -3.5
v -2 0 2.5
v -2 0 -2.5
v -2 1 2.5
v -2 1 1.5
v -2 1 0.5
v -2 1 -0.5
v -2 1 -1.5
v -2 1 -2.5
v -2 2 1.5
v -2 2 0.5
v -2 2 -0.5
v -2 2 -1.5
v -2 3 2.5
v -2 3 0.5
v -2 3 -0.5
v -2 3 -2.5
v 1 0 3.5
v 1 0 2.5
v 1 0 -2.5
v 1 0 -3.5
v 1 1 3.5
v 1 1 2.5
v 1 1 -2.5
v 1 1 -3.5
v 3 0 3.5
v 3 0 -3.5
v 3 5 1.5
v 3 5 -1.5
v 3 6 3.5
v 3 6 1.5
v 3 6 -1.5
v 3 6 -3.5
v -3 1 3.5
v -3 6 3.5
v 1 0 3.5
v 1 1 3.5
v 3 0 3.5
v 3 6 3.5
v -2 0 2.5
v -2 1 2.5
v 1 0 2.5
v 1 1 2.5
v -3 1 0.5
v -3 3 0.5
v -2 1 0.5
v -2 2 0.5
v -2 3 0.5
v -3 1 -2.5
v -3 3 -2.5
v -2 1 -2.5
v -2 3 -2.5
v -3 1 2.5
v -3 3 2.5
v -2 1 2.5
v -2 3 2.5
v -3 1 -0.5
v -3 3 -0.5
v -2 1 -0.5
v -2 2 -0.5
v -2 3 -0.5
v -2 0 -2.5
v -2 1 -2.5
v 1 0 -2.5
v 1 1 -2.5
v -3 1 -3.5
v -3 6 -3.5
v 1 0 -3.5
v 1 1 -3.5
v 3 0 -3.5
v 3 6 -3.5
v 1 0 3.5
v 3 0 3.5
v -2 0 2.5
v 1 0 2.5
v 2 0 2.5
v -1 0 0.5
v 0 0 0.5
v 1 0 0.5
v -1 0 -0.5
v 0 0 -0.5
v 0 0 -1.5
v 1 0 -1.5
v -2 0 -2.5
v 1 0 -2.5
v 2 0 -2.5
v 1 0 -3.5
v 3 0 -3.5
v -3 1 3.5
v 1 1 3.5
v -3 1 2.5
v -2 1 2.5
v 1 1 2.5
v -3 1 0.5
v -2 1 0.5
v -3 1 -0.5
v -2 1 -0.5
v -3 1 -2.5
v -2 1 -2.5
v 1 1 -2.5
v -3 1 -3.5
v 1 1 -3.5
v -3 3 2.5
v -2 3 2.5
v -3 3 0.5
v -2 3 0.5
v -3 3 -0.5
v -2 3 -0.5
v -3 3 -2.5
v -2 3 -2.5
v -3 6 3.5
v 3 6 3.5
v -3 6 1.5
v 3 6 1.5
v -3 6 -1.5
v 3 6 -1.5
v -3 6 -3.5
v 3 6 -3.5

# faces
f 7/5/1 2/5/1 1/5/1
f 8/5/1 4/5/1 3/5/1
f 9/5/1 4/5/1 8/5/1
f 10/5/1 6/5/1 5/5/1
f 11/5/1 9/5/1 8/5/1
f 11/5/1 10/5/1 9/5/1
f 11/5/1 8/5/1 7/5/1
f 12/5/1 10/5/1 11/5/1
f 13/5/1 7/5/1 1/5/1
f 13/5/1 11/5/1 7/5/1
f 14/2/1 12/2/1 11/2/1
f 14/5/1 11/5/1 13/5/1
f 15/5/1 10/5/1 12/5/1
f 15/2/1 12/2/1 14/2/1
f 16/5/1 6/5/1 10/5/1
f 16/5/1 10/5/1 15/5/1
f 19/7/1 18/7/1 17/7/1
f 20/7/1 18/7/1 19/7/1
f 21/7/1 18/7/1 20/7/1
f 22/7/1 18/7/1 21/7/1
f 23/7/1 18/7/1 22/7/1
f 24/7/1 18/7/1 23/7/1
f 25/7/1 20/7/1 19/7/1
f 25/3/1 21/3/1 20/3/1
f 26/3/1 21/3/1 25/3/1
f 27/3/1 23/3/1 22/3/1
f 28/7/1 24/7/1 23/7/1
f 28/3/1 23/3/1 27/3/1
f 29/7/1 26/7/1 25/7/1
f 29/7/1 25/7/1 19/7/1
f 30/7/1 26/7/1 29/7/1
f 31/7/1 28/7/1 27/7/1
f 32/7/1 24/7/1 28/7/1
f 32/7/1 28/7/1 31/7/1
f 37/5/1 34/5/1 33/5/1
f 38/5/1 34/5/1 37/5/1
f 39/5/1 36/5/1 35/5/1
f 40/5/1 36/5/1 39/5/1
f 41/5/2 42/5/2 43/5/2
f 43/5/2 42/5/2 44/5/2
f 41/5/2 43/5/2 45/5/2
f 43/2/2 44/2/2 46/2/2
f 45/5/2 43/5/2 46/5/2
f 44/5/2 42/5/2 47/5/2
f 46/2/2 44/2/2 47/2/2
f 47/5/2 42/5/2 48/5/2
f 52/5/3 50/5/3 49/5/3
f 53/5/3 52/5/3 51/5/3
f 54/5/3 50/5/3 52/5/3
f 54/5/3 52/5/3 53/5/3
f 57/7/3 56/7/3 55/7/3
f 58/7/3 56/7/3 57/7/3
f 61/5/3 60/5/3 59/5/3
f 62/5/3 60/5/3 61/5/3
f 63/5/3 60/5/3 62/5/3
f 66/5/3 65/5/3 64/5/3
f 67/5/3 65/5/3 66/5/3
f 68/5/4 69/5/4 70/5/4
f 70/5/4 69/5/4 71/5/4
f 72/5/4 73/5/4 74/5/4
f 74/5/4 73/5/4 75/5/4
f 75/5/4 73/5/4 76/5/4
f 77/7/4 78/7/4 79/7/4
f 79/7/4 78/7/4 80/7/4
f 81/5/4 82/5/4 84/5/4
f 83/5/4 84/5/4 85/5/4
f 84/5/4 82/5/4 86/5/4
f 85/5/4 84/5/4 86/5/4
f 90/5/5 88/5/5 87/5/5
f 91/5/5 88/5/5 90/5/5
f 92/7/5 90/7/5 89/7/5
f 92/7/5 91/7/5 90/7/5
f 93/7/5 91/7/5 92/7/5
f 94/7/5 91/7/5 93/7/5
f 95/7/5 92/7/5 89/7/5
f 95/6/5 93/6/5 92/6/5
f 96/4/5 94/4/5 93/4/5
f 96/6/5 93/6/5 95/6/5
f 97/7/5 96/7/5 95/7/5
f 97/4/5 94/4/5 96/4/5
f 98/7/5 91/7/5 94/7/5
f 98/4/5 94/4/5 97/4/5
f 99/7/5 97/7/5 95/7/5
f 99/7/5 95/7/5 89/7/5
f 99/7/5 98/7/5 97/7/5
f 100/7/5 91/7/5 98/7/5
f 100/7/5 98/7/5 99/7/5
f 101/5/5 88/5/5 91/5/5
f 101/7/5 91/7/5 100/7/5
f 102/5/5 101/5/5 100/5/5
f 103/5/5 88/5/5 101/5/5
f 103/5/5 101/5/5 102/5/5
f 106/5/5 105/5/5 104/5/5
f 107/5/5 105/5/5 106/5/5
f 108/5/5 105/5/5 107/5/5
f 111/5/5 110/5/5 109/5/5
f 112/5/5 110/5/5 111/5/5
f 116/5/5 114/5/5 113/5/5
f 116/5/5 115/5/5 114/5/5
f 117/5/5 115/5/5 116/5/5
f 120/5/5 119/5/5 118/5/5
f 121/5/5 119/5/5 120/5/5
f 124/5/5 123/5/5 122/5/5
f 125/5/5 123/5/5 124/5/5
f 126/5/6 127/5/6 128/5/6
f 128/5/6 127/5/6 129/5/6
f 128/2/6 129/2/6 130/2/6
f 130/2/6 129/2/6 131/2/6
f 130/5/6 131/5/6 132/5/6
f 132/5/6 131/5/6 133/5/6
