# MagicaVoxel @ Ephtracy

# material
mtllib faux.mtl
usemtl palette

# normals
vn -1 0 0
vn 1 0 0
vn 0 0 1
vn 0 0 -1
vn 0 -1 0
vn 0 1 0

# texcoords
vt 0.947266 0.5
vt 0.951172 0.5
vt 0.970703 0.5

# verts
v -1 0 1
v -1 0 -7
v -1 0 -8
v -1 1 1
v -1 1 -7
v -1 1 -8
v 1 0 -5
v 1 0 -6
v 1 1 -5
v 1 1 -6
v 2 0 -4
v 2 0 -5
v 2 1 -4
v 2 1 -5
v 3 0 -3
v 3 0 -4
v 3 1 -3
v 3 1 -4
v 0 0 1
v 0 0 -6
v 0 1 1
v 0 1 -6
v 1 0 -7
v 1 0 -8
v 1 1 -7
v 1 1 -8
v 2 0 -6
v 2 0 -7
v 2 1 -6
v 2 1 -7
v 3 0 -5
v 3 0 -6
v 3 1 -5
v 3 1 -6
v 4 0 -3
v 4 0 -5
v 4 1 -3
v 4 1 -5
v -1 0 1
v -1 1 1
v 0 0 1
v 0 1 1
v 3 0 -3
v 3 1 -3
v 4 0 -3
v 4 1 -3
v 2 0 -4
v 2 1 -4
v 3 0 -4
v 3 1 -4
v 1 0 -5
v 1 1 -5
v 2 0 -5
v 2 1 -5
v 0 0 -6
v 0 1 -6
v 1 0 -6
v 1 1 -6
v 3 0 -5
v 3 1 -5
v 4 0 -5
v 4 1 -5
v 2 0 -6
v 2 1 -6
v 3 0 -6
v 3 1 -6
v 1 0 -7
v 1 1 -7
v 2 0 -7
v 2 1 -7
v -1 0 -8
v -1 1 -8
v 1 0 -8
v 1 1 -8
v -1 0 1
v 0 0 1
v 3 0 -3
v 4 0 -3
v 2 0 -4
v 3 0 -4
v 1 0 -5
v 2 0 -5
v 3 0 -5
v 4 0 -5
v 0 0 -6
v 1 0 -6
v 2 0 -6
v 3 0 -6
v -1 0 -7
v 0 0 -7
v 1 0 -7
v 2 0 -7
v -1 0 -8
v 1 0 -8
v -1 1 1
v 0 1 1
v 3 1 -3
v 4 1 -3
v 2 1 -4
v 3 1 -4
v 1 1 -5
v 2 1 -5
v 3 1 -5
v 4 1 -5
v 0 1 -6
v 1 1 -6
v 2 1 -6
v 3 1 -6
v -1 1 -7
v 0 1 -7
v 1 1 -7
v 2 1 -7
v -1 1 -8
v 1 1 -8

# faces
f 4/3/1 2/3/1 1/3/1
f 5/1/1 3/1/1 2/1/1
f 5/3/1 2/3/1 4/3/1
f 6/1/1 3/1/1 5/1/1
f 9/2/1 8/2/1 7/2/1
f 10/2/1 8/2/1 9/2/1
f 13/2/1 12/2/1 11/2/1
f 14/2/1 12/2/1 13/2/1
f 17/1/1 16/1/1 15/1/1
f 18/1/1 16/1/1 17/1/1
f 19/3/2 20/3/2 21/3/2
f 21/3/2 20/3/2 22/3/2
f 23/1/2 24/1/2 25/1/2
f 25/1/2 24/1/2 26/1/2
f 27/1/2 28/1/2 29/1/2
f 29/1/2 28/1/2 30/1/2
f 31/1/2 32/1/2 33/1/2
f 33/1/2 32/1/2 34/1/2
f 35/1/2 36/1/2 37/1/2
f 37/1/2 36/1/2 38/1/2
f 41/3/3 40/3/3 39/3/3
f 42/3/3 40/3/3 41/3/3
f 45/1/3 44/1/3 43/1/3
f 46/1/3 44/1/3 45/1/3
f 49/2/3 48/2/3 47/2/3
f 50/2/3 48/2/3 49/2/3
f 53/2/3 52/2/3 51/2/3
f 54/2/3 52/2/3 53/2/3
f 57/2/3 56/2/3 55/2/3
f 58/2/3 56/2/3 57/2/3
f 59/1/4 60/1/4 61/1/4
f 61/1/4 60/1/4 62/1/4
f 63/1/4 64/1/4 65/1/4
f 65/1/4 64/1/4 66/1/4
f 67/1/4 68/1/4 69/1/4
f 69/1/4 68/1/4 70/1/4
f 71/1/4 72/1/4 73/1/4
f 73/1/4 72/1/4 74/1/4
f 80/1/5 78/1/5 77/1/5
f 82/2/5 80/2/5 79/2/5
f 83/1/5 78/1/5 80/1/5
f 83/2/5 80/2/5 82/2/5
f 84/1/5 78/1/5 83/1/5
f 85/3/5 76/3/5 75/3/5
f 86/2/5 82/2/5 81/2/5
f 87/1/5 83/1/5 82/1/5
f 87/2/5 82/2/5 86/2/5
f 88/1/5 83/1/5 87/1/5
f 89/3/5 85/3/5 75/3/5
f 90/2/5 86/2/5 85/2/5
f 90/3/5 85/3/5 89/3/5
f 91/1/5 87/1/5 86/1/5
f 91/2/5 86/2/5 90/2/5
f 92/1/5 87/1/5 91/1/5
f 93/1/5 90/1/5 89/1/5
f 93/1/5 91/1/5 90/1/5
f 94/1/5 91/1/5 93/1/5
f 97/1/6 98/1/6 100/1/6
f 99/2/6 100/2/6 102/2/6
f 100/1/6 98/1/6 103/1/6
f 102/2/6 100/2/6 103/2/6
f 103/1/6 98/1/6 104/1/6
f 95/3/6 96/3/6 105/3/6
f 101/2/6 102/2/6 106/2/6
f 102/1/6 103/1/6 107/1/6
f 106/2/6 102/2/6 107/2/6
f 107/1/6 103/1/6 108/1/6
f 95/3/6 105/3/6 109/3/6
f 105/2/6 106/2/6 110/2/6
f 109/3/6 105/3/6 110/3/6
f 106/1/6 107/1/6 111/1/6
f 110/2/6 106/2/6 111/2/6
f 111/1/6 107/1/6 112/1/6
f 109/1/6 110/1/6 113/1/6
f 110/1/6 111/1/6 113/1/6
f 113/1/6 111/1/6 114/1/6
