# MagicaVoxel @ Ephtracy

# material
mtllib Hache.mtl
usemtl palette

# normals
vn -1 0 0
vn 1 0 0
vn 0 0 1
vn 0 0 -1
vn 0 -1 0
vn 0 1 0

# texcoords
vt 0.947266 0.5
vt 0.951172 0.5
vt 0.970703 0.5
vt 0.974609 0.5

# verts
v -2.5 9 0.5
v -2.5 9 -0.5
v -2.5 12 0.5
v -2.5 12 -0.5
v -1.5 0 0.5
v -1.5 0 -0.5
v -1.5 1 0.5
v -1.5 1 -0.5
v -1.5 6 0.5
v -1.5 6 -0.5
v -1.5 9 0.5
v -1.5 9 -0.5
v -1.5 12 0.5
v -1.5 12 -0.5
v -1.5 13 0.5
v -1.5 13 -0.5
v 0.5 12 0.5
v 0.5 12 -0.5
v 0.5 13 0.5
v 0.5 13 -0.5
v -0.5 0 0.5
v -0.5 0 -0.5
v -0.5 1 0.5
v -0.5 1 -0.5
v -0.5 6 0.5
v -0.5 6 -0.5
v -0.5 9 0.5
v -0.5 9 -0.5
v -0.5 12 0.5
v -0.5 12 -0.5
v -0.5 13 0.5
v -0.5 13 -0.5
v 2.5 9 0.5
v 2.5 9 -0.5
v 2.5 13 0.5
v 2.5 13 -0.5
v -2.5 9 0.5
v -2.5 12 0.5
v -1.5 0 0.5
v -1.5 1 0.5
v -1.5 6 0.5
v -1.5 9 0.5
v -1.5 10 0.5
v -1.5 11 0.5
v -1.5 12 0.5
v -1.5 13 0.5
v -0.5 0 0.5
v -0.5 1 0.5
v -0.5 6 0.5
v -0.5 9 0.5
v -0.5 10 0.5
v -0.5 11 0.5
v -0.5 12 0.5
v -0.5 13 0.5
v 0.5 12 0.5
v 0.5 13 0.5
v 1.5 9 0.5
v 1.5 13 0.5
v 2.5 9 0.5
v 2.5 13 0.5
v -2.5 9 -0.5
v -2.5 12 -0.5
v -1.5 0 -0.5
v -1.5 1 -0.5
v -1.5 6 -0.5
v -1.5 9 -0.5
v -1.5 10 -0.5
v -1.5 11 -0.5
v -1.5 12 -0.5
v -1.5 13 -0.5
v -0.5 0 -0.5
v -0.5 1 -0.5
v -0.5 6 -0.5
v -0.5 9 -0.5
v -0.5 10 -0.5
v -0.5 11 -0.5
v -0.5 12 -0.5
v -0.5 13 -0.5
v 0.5 12 -0.5
v 0.5 13 -0.5
v 1.5 9 -0.5
v 1.5 13 -0.5
v 2.5 9 -0.5
v 2.5 13 -0.5
v -1.5 0 0.5
v -0.5 0 0.5
v -1.5 0 -0.5
v -0.5 0 -0.5
v -2.5 9 0.5
v -1.5 9 0.5
v -0.5 9 0.5
v 1.5 9 0.5
v 2.5 9 0.5
v -2.5 9 -0.5
v -1.5 9 -0.5
v -0.5 9 -0.5
v 1.5 9 -0.5
v 2.5 9 -0.5
v -2.5 12 0.5
v -1.5 12 0.5
v -0.5 12 0.5
v 0.5 12 0.5
v -2.5 12 -0.5
v -1.5 12 -0.5
v -0.5 12 -0.5
v 0.5 12 -0.5
v -1.5 13 0.5
v -0.5 13 0.5
v 0.5 13 0.5
v 1.5 13 0.5
v 2.5 13 0.5
v -1.5 13 -0.5
v -0.5 13 -0.5
v 0.5 13 -0.5
v 1.5 13 -0.5
v 2.5 13 -0.5

# faces
f 3/1/1 2/1/1 1/1/1
f 4/1/1 2/1/1 3/1/1
f 7/4/1 6/4/1 5/4/1
f 8/4/1 6/4/1 7/4/1
f 9/3/1 8/3/1 7/3/1
f 10/3/1 8/3/1 9/3/1
f 11/4/1 10/4/1 9/4/1
f 12/4/1 10/4/1 11/4/1
f 15/4/1 14/4/1 13/4/1
f 16/4/1 14/4/1 15/4/1
f 19/1/1 18/1/1 17/1/1
f 20/1/1 18/1/1 19/1/1
f 21/4/2 22/4/2 23/4/2
f 23/4/2 22/4/2 24/4/2
f 23/3/2 24/3/2 25/3/2
f 25/3/2 24/3/2 26/3/2
f 25/4/2 26/4/2 27/4/2
f 27/4/2 26/4/2 28/4/2
f 29/4/2 30/4/2 31/4/2
f 31/4/2 30/4/2 32/4/2
f 33/2/2 34/2/2 35/2/2
f 35/2/2 34/2/2 36/2/2
f 42/1/3 38/1/3 37/1/3
f 43/1/3 38/1/3 42/1/3
f 44/1/3 38/1/3 43/1/3
f 45/1/3 38/1/3 44/1/3
f 47/4/3 40/4/3 39/4/3
f 48/3/3 41/3/3 40/3/3
f 48/4/3 40/4/3 47/4/3
f 49/4/3 42/4/3 41/4/3
f 49/3/3 41/3/3 48/3/3
f 49/4/3 43/4/3 42/4/3
f 50/4/3 43/4/3 49/4/3
f 51/1/3 44/1/3 43/1/3
f 51/4/3 43/4/3 50/4/3
f 52/4/3 46/4/3 45/4/3
f 52/1/3 44/1/3 51/1/3
f 52/4/3 45/4/3 44/4/3
f 53/4/3 46/4/3 52/4/3
f 54/4/3 46/4/3 53/4/3
f 55/1/3 51/1/3 50/1/3
f 55/1/3 53/1/3 52/1/3
f 55/1/3 52/1/3 51/1/3
f 57/1/3 55/1/3 50/1/3
f 57/1/3 56/1/3 55/1/3
f 58/1/3 56/1/3 57/1/3
f 59/2/3 58/2/3 57/2/3
f 60/2/3 58/2/3 59/2/3
f 61/1/4 62/1/4 66/1/4
f 66/1/4 62/1/4 67/1/4
f 67/1/4 62/1/4 68/1/4
f 68/1/4 62/1/4 69/1/4
f 63/4/4 64/4/4 71/4/4
f 64/3/4 65/3/4 72/3/4
f 71/4/4 64/4/4 72/4/4
f 65/4/4 66/4/4 73/4/4
f 72/3/4 65/3/4 73/3/4
f 66/4/4 67/4/4 73/4/4
f 73/4/4 67/4/4 74/4/4
f 67/1/4 68/1/4 75/1/4
f 74/4/4 67/4/4 75/4/4
f 69/4/4 70/4/4 76/4/4
f 75/1/4 68/1/4 76/1/4
f 68/4/4 69/4/4 76/4/4
f 76/4/4 70/4/4 77/4/4
f 77/4/4 70/4/4 78/4/4
f 74/1/4 75/1/4 79/1/4
f 76/1/4 77/1/4 79/1/4
f 75/1/4 76/1/4 79/1/4
f 74/1/4 79/1/4 81/1/4
f 79/1/4 80/1/4 81/1/4
f 81/1/4 80/1/4 82/1/4
f 81/2/4 82/2/4 83/2/4
f 83/2/4 82/2/4 84/2/4
f 87/4/5 86/4/5 85/4/5
f 88/4/5 86/4/5 87/4/5
f 94/1/5 90/1/5 89/1/5
f 95/1/5 90/1/5 94/1/5
f 96/1/5 92/1/5 91/1/5
f 97/2/5 93/2/5 92/2/5
f 97/1/5 92/1/5 96/1/5
f 98/2/5 93/2/5 97/2/5
f 99/1/6 100/1/6 103/1/6
f 103/1/6 100/1/6 104/1/6
f 101/1/6 102/1/6 105/1/6
f 105/1/6 102/1/6 106/1/6
f 107/4/6 108/4/6 112/4/6
f 112/4/6 108/4/6 113/4/6
f 109/1/6 110/1/6 114/1/6
f 110/2/6 111/2/6 115/2/6
f 114/1/6 110/1/6 115/1/6
f 115/2/6 111/2/6 116/2/6
