# MagicaVoxel @ Ephtracy

# material
mtllib tomate.mtl
usemtl palette

# normals
vn -1 0 0
vn 1 0 0
vn 0 0 1
vn 0 0 -1
vn 0 -1 0
vn 0 1 0

# texcoords
vt 0.841797 0.5
vt 0.845703 0.5
vt 0.876953 0.5

# verts
v -3 1 1
v -3 1 -1
v -3 3 1
v -3 3 -1
v -2 0 1
v -2 0 -1
v -2 1 2
v -2 1 1
v -2 1 -1
v -2 1 -2
v -2 2 -1
v -2 2 -2
v -2 3 2
v -2 3 1
v -2 3 -1
v -2 4 1
v -2 4 -1
v -1 0 2
v -1 0 1
v -1 0 -1
v -1 0 -2
v -1 1 3
v -1 1 2
v -1 1 1
v -1 1 -1
v -1 1 -2
v -1 1 -3
v -1 2 -1
v -1 2 -2
v -1 2 -3
v -1 3 3
v -1 3 2
v -1 3 1
v -1 4 2
v -1 4 1
v -1 4 -0
v -1 4 -1
v -1 4 -2
v -1 5 1
v -1 5 -0
v 0 2 -2
v 0 2 -3
v 0 3 -2
v 0 3 -3
v 0 4 -0
v 0 4 -1
v 0 5 1
v 0 5 -0
v 0 5 -1
v 0 6 1
v 0 6 -0
v 1 0 2
v 1 0 1
v 1 0 -1
v 1 0 -2
v 1 1 3
v 1 1 2
v 1 1 1
v 1 1 -1
v 1 1 -2
v 1 1 -3
v 1 3 3
v 1 3 2
v 1 3 1
v 1 3 -1
v 1 3 -2
v 1 3 -3
v 1 4 2
v 1 4 1
v 1 4 -1
v 1 4 -2
v 1 5 -0
v 1 5 -1
v 1 6 1
v 1 6 -0
v 2 0 1
v 2 0 -1
v 2 1 2
v 2 1 1
v 2 1 -1
v 2 1 -2
v 2 3 2
v 2 3 1
v 2 3 -1
v 2 3 -2
v 2 4 1
v 2 4 -1
v 3 1 1
v 3 1 -1
v 3 3 1
v 3 3 -1
v -1 1 3
v -1 3 3
v 1 1 3
v 1 3 3
v -2 1 2
v -2 3 2
v -1 0 2
v -1 1 2
v -1 3 2
v -1 4 2
v 1 0 2
v 1 1 2
v 1 3 2
v 1 4 2
v 2 1 2
v 2 3 2
v -3 1 1
v -3 3 1
v -2 0 1
v -2 1 1
v -2 3 1
v -2 4 1
v -1 0 1
v -1 1 1
v -1 3 1
v -1 4 1
v -1 5 1
v 0 5 1
v 0 6 1
v 1 0 1
v 1 1 1
v 1 3 1
v 1 4 1
v 1 6 1
v 2 0 1
v 2 1 1
v 2 3 1
v 2 4 1
v 3 1 1
v 3 3 1
v -1 4 -0
v -1 5 -0
v 0 4 -0
v 0 5 -0
v 0 6 -0
v 1 5 -0
v 1 6 -0
v -3 1 -1
v -3 3 -1
v -2 0 -1
v -2 1 -1
v -2 2 -1
v -2 3 -1
v -2 4 -1
v -1 0 -1
v -1 1 -1
v -1 2 -1
v -1 4 -1
v 0 4 -1
v 0 5 -1
v 1 0 -1
v 1 1 -1
v 1 3 -1
v 1 4 -1
v 1 5 -1
v 2 0 -1
v 2 1 -1
v 2 3 -1
v 2 4 -1
v 3 1 -1
v 3 3 -1
v -2 1 -2
v -2 2 -2
v -1 0 -2
v -1 1 -2
v -1 2 -2
v -1 4 -2
v 0 2 -2
v 0 3 -2
v 1 0 -2
v 1 1 -2
v 1 3 -2
v 1 4 -2
v 2 1 -2
v 2 3 -2
v -1 1 -3
v -1 2 -3
v 0 2 -3
v 0 3 -3
v 1 1 -3
v 1 3 -3
v -1 0 2
v 1 0 2
v -2 0 1
v -1 0 1
v 1 0 1
v 2 0 1
v -2 0 -1
v -1 0 -1
v 1 0 -1
v 2 0 -1
v -1 0 -2
v 1 0 -2
v -1 1 3
v 1 1 3
v -2 1 2
v -1 1 2
v 1 1 2
v 2 1 2
v -3 1 1
v -2 1 1
v -1 1 1
v 1 1 1
v 2 1 1
v 3 1 1
v -3 1 -1
v -2 1 -1
v -1 1 -1
v 1 1 -1
v 2 1 -1
v 3 1 -1
v -2 1 -2
v -1 1 -2
v 1 1 -2
v 2 1 -2
v -1 1 -3
v 1 1 -3
v -2 2 -1
v -1 2 -1
v -2 2 -2
v -1 2 -2
v 0 2 -2
v -1 2 -3
v 0 2 -3
v -1 3 3
v 1 3 3
v -2 3 2
v -1 3 2
v 1 3 2
v 2 3 2
v -3 3 1
v -2 3 1
v -1 3 1
v 1 3 1
v 2 3 1
v 3 3 1
v -3 3 -1
v -2 3 -1
v 1 3 -1
v 2 3 -1
v 3 3 -1
v 0 3 -2
v 1 3 -2
v 2 3 -2
v 0 3 -3
v 1 3 -3
v -1 4 2
v 1 4 2
v -2 4 1
v -1 4 1
v 1 4 1
v 2 4 1
v -1 4 -0
v 0 4 -0
v -2 4 -1
v -1 4 -1
v 0 4 -1
v 1 4 -1
v 2 4 -1
v -1 4 -2
v 1 4 -2
v -1 5 1
v 0 5 1
v -1 5 -0
v 0 5 -0
v 1 5 -0
v 0 5 -1
v 1 5 -1
v 0 6 1
v 1 6 1
v 0 6 -0
v 1 6 -0

# faces
f 3/2/1 2/2/1 1/2/1
f 4/2/1 2/2/1 3/2/1
f 8/2/1 6/2/1 5/2/1
f 9/2/1 6/2/1 8/2/1
f 11/2/1 10/2/1 9/2/1
f 12/2/1 10/2/1 11/2/1
f 13/2/1 8/2/1 7/2/1
f 14/2/1 8/2/1 13/2/1
f 16/2/1 15/2/1 14/2/1
f 17/2/1 15/2/1 16/2/1
f 23/2/1 19/2/1 18/2/1
f 24/2/1 19/2/1 23/2/1
f 25/2/1 21/2/1 20/2/1
f 26/2/1 21/2/1 25/2/1
f 29/2/1 27/2/1 26/2/1
f 30/2/1 27/2/1 29/2/1
f 31/2/1 23/2/1 22/2/1
f 32/2/1 23/2/1 31/2/1
f 34/2/1 33/2/1 32/2/1
f 35/2/1 33/2/1 34/2/1
f 37/2/1 29/2/1 28/2/1
f 38/2/1 29/2/1 37/2/1
f 39/3/1 36/3/1 35/3/1
f 40/3/1 36/3/1 39/3/1
f 43/2/1 42/2/1 41/2/1
f 44/2/1 42/2/1 43/2/1
f 48/3/1 46/3/1 45/3/1
f 49/3/1 46/3/1 48/3/1
f 50/3/1 48/3/1 47/3/1
f 51/3/1 48/3/1 50/3/1
f 52/2/2 53/2/2 57/2/2
f 57/2/2 53/2/2 58/2/2
f 54/2/2 55/2/2 59/2/2
f 59/2/2 55/2/2 60/2/2
f 56/2/2 57/2/2 62/2/2
f 62/2/2 57/2/2 63/2/2
f 60/2/2 61/2/2 66/2/2
f 66/2/2 61/2/2 67/2/2
f 63/2/2 64/2/2 68/2/2
f 68/2/2 64/2/2 69/2/2
f 65/2/2 66/2/2 70/2/2
f 70/2/2 66/2/2 71/2/2
f 69/3/2 70/3/2 72/3/2
f 72/3/2 70/3/2 73/3/2
f 69/3/2 72/3/2 74/3/2
f 74/3/2 72/3/2 75/3/2
f 76/2/2 77/2/2 79/2/2
f 79/2/2 77/2/2 80/2/2
f 78/2/2 79/2/2 82/2/2
f 82/2/2 79/2/2 83/2/2
f 80/2/2 81/2/2 84/2/2
f 84/2/2 81/2/2 85/2/2
f 83/2/2 84/2/2 86/2/2
f 86/2/2 84/2/2 87/2/2
f 88/2/2 89/2/2 90/2/2
f 90/2/2 89/2/2 91/2/2
f 94/2/3 93/2/3 92/2/3
f 95/2/3 93/2/3 94/2/3
f 99/2/3 97/2/3 96/2/3
f 100/2/3 97/2/3 99/2/3
f 102/2/3 99/2/3 98/2/3
f 103/2/3 99/2/3 102/2/3
f 104/2/3 101/2/3 100/2/3
f 105/2/3 101/2/3 104/2/3
f 106/2/3 104/2/3 103/2/3
f 107/2/3 104/2/3 106/2/3
f 111/2/3 109/2/3 108/2/3
f 112/2/3 109/2/3 111/2/3
f 114/2/3 111/2/3 110/2/3
f 115/2/3 111/2/3 114/2/3
f 116/2/3 113/2/3 112/2/3
f 117/2/3 113/2/3 116/2/3
f 119/3/3 118/3/3 117/3/3
f 124/3/3 119/3/3 117/3/3
f 124/3/3 120/3/3 119/3/3
f 125/3/3 120/3/3 124/3/3
f 126/2/3 122/2/3 121/2/3
f 127/2/3 122/2/3 126/2/3
f 128/2/3 124/2/3 123/2/3
f 129/2/3 124/2/3 128/2/3
f 130/2/3 128/2/3 127/2/3
f 131/2/3 128/2/3 130/2/3
f 132/3/4 133/3/4 134/3/4
f 134/3/4 133/3/4 135/3/4
f 135/3/4 136/3/4 137/3/4
f 137/3/4 136/3/4 138/3/4
f 139/2/4 140/2/4 142/2/4
f 142/2/4 140/2/4 143/2/4
f 143/2/4 140/2/4 144/2/4
f 141/2/4 142/2/4 146/2/4
f 146/2/4 142/2/4 147/2/4
f 144/2/4 145/2/4 148/2/4
f 143/2/4 144/2/4 148/2/4
f 148/2/4 145/2/4 149/2/4
f 150/3/4 151/3/4 155/3/4
f 155/3/4 151/3/4 156/3/4
f 152/2/4 153/2/4 157/2/4
f 157/2/4 153/2/4 158/2/4
f 154/2/4 155/2/4 159/2/4
f 159/2/4 155/2/4 160/2/4
f 158/2/4 159/2/4 161/2/4
f 161/2/4 159/2/4 162/2/4
f 163/2/4 164/2/4 166/2/4
f 166/2/4 164/2/4 167/2/4
f 167/2/4 168/2/4 169/2/4
f 169/2/4 168/2/4 170/2/4
f 165/2/4 166/2/4 171/2/4
f 171/2/4 166/2/4 172/2/4
f 170/2/4 168/2/4 173/2/4
f 173/2/4 168/2/4 174/2/4
f 172/2/4 173/2/4 175/2/4
f 175/2/4 173/2/4 176/2/4
f 177/2/4 178/2/4 179/2/4
f 177/2/4 179/2/4 181/2/4
f 179/2/4 180/2/4 181/2/4
f 181/2/4 180/2/4 182/2/4
f 186/2/5 184/2/5 183/2/5
f 187/2/5 184/2/5 186/2/5
f 189/2/5 186/2/5 185/2/5
f 189/2/5 188/2/5 187/2/5
f 189/2/5 187/2/5 186/2/5
f 190/2/5 188/2/5 189/2/5
f 191/2/5 188/2/5 190/2/5
f 192/2/5 188/2/5 191/2/5
f 193/2/5 191/2/5 190/2/5
f 194/2/5 191/2/5 193/2/5
f 198/2/5 196/2/5 195/2/5
f 199/2/5 196/2/5 198/2/5
f 202/2/5 198/2/5 197/2/5
f 203/2/5 198/2/5 202/2/5
f 204/2/5 200/2/5 199/2/5
f 205/2/5 200/2/5 204/2/5
f 207/2/5 202/2/5 201/2/5
f 208/2/5 202/2/5 207/2/5
f 211/2/5 206/2/5 205/2/5
f 212/2/5 206/2/5 211/2/5
f 213/2/5 209/2/5 208/2/5
f 214/2/5 209/2/5 213/2/5
f 215/2/5 211/2/5 210/2/5
f 216/2/5 211/2/5 215/2/5
f 217/2/5 215/2/5 214/2/5
f 218/2/5 215/2/5 217/2/5
f 219/2/6 220/2/6 221/2/6
f 221/2/6 220/2/6 222/2/6
f 222/2/6 223/2/6 224/2/6
f 224/2/6 223/2/6 225/2/6
f 226/2/6 227/2/6 229/2/6
f 229/2/6 227/2/6 230/2/6
f 228/2/6 229/2/6 233/2/6
f 233/2/6 229/2/6 234/2/6
f 230/2/6 231/2/6 235/2/6
f 235/2/6 231/2/6 236/2/6
f 232/2/6 233/2/6 238/2/6
f 238/2/6 233/2/6 239/2/6
f 236/2/6 237/2/6 241/2/6
f 241/2/6 237/2/6 242/2/6
f 240/2/6 241/2/6 244/2/6
f 244/2/6 241/2/6 245/2/6
f 243/2/6 244/2/6 246/2/6
f 246/2/6 244/2/6 247/2/6
f 248/2/6 249/2/6 251/2/6
f 251/2/6 249/2/6 252/2/6
f 250/2/6 251/2/6 254/2/6
f 250/2/6 254/2/6 256/2/6
f 254/2/6 255/2/6 256/2/6
f 256/2/6 255/2/6 257/2/6
f 257/2/6 255/2/6 258/2/6
f 252/2/6 253/2/6 259/2/6
f 259/2/6 253/2/6 260/2/6
f 257/2/6 258/2/6 261/2/6
f 258/2/6 259/2/6 261/2/6
f 261/2/6 259/2/6 262/2/6
f 263/3/6 264/3/6 265/3/6
f 265/3/6 264/3/6 266/3/6
f 266/3/6 267/3/6 268/3/6
f 268/3/6 267/3/6 269/3/6
f 270/3/6 271/3/6 272/3/6
f 272/3/6 271/3/6 273/3/6
